<!--?xml version="1.0" standalone="no"?-->
<svg id="sw-js-blob-svg" viewBox="0 0 100 100" xmlns="http://www.w3.org/2000/svg" version="1.1">
      <defs>
          <linearGradient id="sw-gradient" x1="0" x2="1" y1="1" y2="0">
              <stop id="stop1" stop-color="rgba(251, 189, 35, 1)" offset="0%" style="--darkreader-inline-stopcolor: #131516;" data-darkreader-inline-stopcolor=""></stop>
              <stop id="stop2" stop-color="rgba(215, 38, 61, 1)" offset="100%" style="--darkreader-inline-stopcolor: #ac1e31;" data-darkreader-inline-stopcolor=""></stop>
          </linearGradient>
      </defs>
  <path fill="#080706" d="M14.6,-21C20.3,-22,27.3,-20.9,29.2,-17C31.2,-13.2,28.1,-6.6,24,-2.4C19.9,1.9,14.9,3.8,14.2,9.8C13.5,15.8,17.2,26,15.5,31.1C13.9,36.2,7,36.2,1.9,32.9C-3.2,29.7,-6.4,23.1,-13.2,21.1C-20.1,19,-30.6,21.4,-34.7,18.6C-38.8,15.8,-36.5,7.9,-30.3,3.6C-24.1,-0.7,-13.9,-1.5,-8.8,-2.4C-3.6,-3.4,-3.5,-4.6,-2.9,-6.5C-2.2,-8.3,-1.1,-10.9,1.7,-13.8C4.5,-16.7,8.9,-19.9,14.6,-21Z" width="100%" height="100%" transform="translate(50 50)" style="transition: all 0.3s ease 0s;" stroke-width="0.1" stroke="url(#sw-gradient)"></path>
</svg>
