<svg version="1.2" xmlns="http://www.w3.org/2000/svg" viewBox="0 0 201 198" width="201" height="198">
	<title>&lt;Group&gt;</title>
	<style>
		.s0 { fill: #080706; stroke-width: 0.1; }
	</style>
	<defs>
			<linearGradient id="gradient1" x1="0" x2="1" y1="1" y2="0">
					<stop id="stop1" stop-color="rgba(251, 189, 35, 1)" offset="0%" style="--darkreader-inline-stopcolor: #131516;" data-darkreader-inline-stopcolor=""></stop>
					<stop id="stop2" stop-color="rgba(215, 38, 61, 1)" offset="100%" style="--darkreader-inline-stopcolor: #ac1e31;" data-darkreader-inline-stopcolor=""></stop>
			</linearGradient>
	</defs>
	<g id="&lt;Group&gt;">
		<path id="&lt;Path&gt;" class="s0" stroke="url(#gradient1)" d="m100.8 0.7c0.3 2.3 1.9 11.1 5.1 17.1 3.5 6.6 0.7 12.4 0.7 12.4q0.1 0 0.1-0.1c1.9-1.1 2.7-4.5 2.7-4.5 2.2 8.5 0 14.6 0 14.6 2.7-2 3.3-4.3 3.3-4.3 2.7 7.2-0.2 16.6-0.2 16.6 1.9-1.1 3.3-3.8 3.3-3.8 1.2 8.8-2.1 14.9-2.1 14.9 2.1-1.1 3.5-3 3.5-3 0.8 7.4-2.2 16.6-2.2 16.6 2.2-0.7 3.3-3.4 3.3-3.4 0.4 7.3-4.3 17-4.3 17 2.3-1.2 4.7-3.7 4.7-3.7-0.3 7.5-5.9 15.6-5.9 15.6 2.9 0 5.4-1.8 5.4-1.8-0.6 9-7.7 17.5-7.7 17.5 2.2-0.3 4.6-2.4 4.6-2.4 0 0-12.9 21.5-14.3 35.2-1.9-13.6-15.3-35.1-15.3-35.1 0 0 2.5 1.9 5.5 2.3 0 0-7.1-8.5-7.7-17.5 0 0 2.5 1.8 5.4 1.8 0 0-5.6-8.1-5.9-15.6 0 0 2.4 2.5 4.7 3.7 0 0-4.7-9.7-4.3-17 0 0 1.1 2.7 3.3 3.4 0 0-3-9.2-2.2-16.6 0 0 1.4 1.9 3.6 3 0 0-3.4-6.1-2.2-14.9 0 0 1.4 2.7 3.3 3.8 0 0-2.9-9.4-0.2-16.6 0 0 0.7 2.3 3.3 4.3 0 0-2.2-6.1 0.1-14.6 0 0 0.7 3.4 2.6 4.5q0 0.1 0.1 0.1c0 0-2.5-5.9 0.8-12.4 4.2-8.5 4.8-14.7 5.1-17.1z"/>
		<path id="&lt;Path&gt;" class="s0" stroke="url(#gradient1)" d="m200.9 51.1c-1.3 1.7-6.1 8.7-8 14.8-2.1 6.7-7.8 8.7-7.8 8.7q0.1 0.1 0.2 0.1c1.9 0.5 4.7-1.3 4.7-1.3-4.1 7.2-9.6 9.8-9.6 9.8 3 0.4 5-0.7 5-0.7-3 6.6-11.2 10.9-11.2 10.9 2 0.5 4.7-0.4 4.7-0.4-5 6.7-11.3 8.5-11.3 8.5 2.1 0.7 4.3 0.4 4.3 0.4-4.3 5.4-12.5 9.6-12.5 9.6 2 0.9 4.5 0 4.5 0-4.6 5.1-14.1 8.3-14.1 8.3 2.3 0.8 5.6 0.7 5.6 0.7-5.2 4.8-14.4 6.5-14.4 6.5 2 1.9 4.9 2.4 4.9 2.4-6.5 5.6-16.8 6.5-16.8 6.5 1.7 1.3 4.6 1.4 4.6 1.4 0 0-22.8 5.8-32.9 13.9 7.8-10.3 13.2-33.5 13.2-33.5 0 0 0.4 2.9 2.1 5.2 0 0 0.9-10.3 6.5-16.8 0 0 0.5 2.9 2.4 4.9 0 0 1.7-9.2 6.5-14.4 0 0-0.1 3.3 0.7 5.6 0 0 3.2-9.5 8.3-14.1 0 0-0.9 2.5 0 4.5 0 0 4.2-8.2 9.6-12.5 0 0-0.3 2.2 0.4 4.3 0 0 1.8-6.3 8.5-11.3 0 0-0.9 2.7-0.4 4.7 0 0 4.3-8.2 10.9-11.2 0 0-1.1 2-0.7 5 0 0 2.6-5.5 9.8-9.6 0 0-1.8 2.8-1.3 4.7q0 0.1 0.1 0.2c0 0 2.2-5.6 8.7-7.8 8.4-2.8 13-6.6 14.8-8z"/>
		<path id="&lt;Path&gt;" class="s0" stroke="url(#gradient1)" d="m194.6 151.2c-1.4 0.2-6.9 1.2-10.7 3.2-4.1 2.2-7.7 0.5-7.7 0.5q0 0 0.1 0.1c0.6 1.1 2.7 1.6 2.7 1.6-5.2 1.4-9 0-9 0 1.2 1.7 2.6 2.1 2.6 2.1-4.5 1.7-10.3-0.2-10.3-0.2 0.7 1.2 2.4 2.1 2.4 2.1-5.5 0.8-9.3-1.3-9.3-1.3 0.7 1.3 1.8 2.2 1.8 2.2-4.5 0.5-10.3-1.4-10.3-1.4 0.5 1.4 2.1 2.1 2.1 2.1-4.5 0.2-10.6-2.7-10.6-2.7 0.7 1.4 2.3 2.9 2.3 2.9-4.6-0.2-9.7-3.6-9.7-3.6 0 1.7 1.1 3.3 1.1 3.3-5.6-0.4-10.9-4.8-10.9-4.8 0.2 1.4 1.6 2.9 1.6 2.9 0 0-13.5-8-22-9 8.5-1.1 21.9-9.5 21.9-9.5 0 0-1.2 1.6-1.5 3.5 0 0 5.3-4.5 10.9-4.8 0 0-1.1 1.5-1.1 3.3 0 0 5.1-3.5 9.7-3.7 0 0-1.6 1.6-2.3 3 0 0 6.1-3 10.6-2.7 0 0-1.6 0.7-2.1 2.1 0 0 5.8-1.9 10.3-1.4 0 0-1.1 0.9-1.8 2.2 0 0 3.8-2.1 9.3-1.3 0 0-1.7 0.8-2.4 2 0 0 5.8-1.8 10.3-0.1 0 0-1.4 0.4-2.6 2 0 0 3.8-1.3 9 0.1 0 0-2.1 0.5-2.7 1.6q-0.1 0.1-0.1 0.1c0 0 3.7-1.6 7.7 0.5 5.3 2.6 9.2 3 10.7 3.1z"/>
		<path id="&lt;Path&gt;" class="s0" stroke="url(#gradient1)" d="m133.7 184.2c-0.6-0.4-2.8-2-4.9-2.6-2.2-0.7-2.8-2.6-2.8-2.6q0 0 0 0.1c-0.2 0.6 0.4 1.5 0.4 1.5-2.4-1.4-3.2-3.2-3.2-3.2-0.2 1 0.2 1.7 0.2 1.7-2.2-1-3.6-3.7-3.6-3.7-0.2 0.7 0.1 1.6 0.1 1.6-2.2-1.7-2.8-3.8-2.8-3.8-0.2 0.7-0.1 1.5-0.1 1.5-1.8-1.5-3.2-4.2-3.2-4.2-0.3 0.7 0.1 1.5 0.1 1.5-1.7-1.5-2.8-4.6-2.8-4.6-0.3 0.7-0.2 1.8-0.2 1.8-1.6-1.7-2.2-4.7-2.2-4.7-0.6 0.6-0.7 1.6-0.7 1.6-1.9-2.1-2.2-5.5-2.2-5.5-0.4 0.5-0.5 1.5-0.5 1.5 0 0-1.9-7.5-4.5-10.9 3.4 2.6 11 4.4 11 4.4 0 0-1 0.1-1.7 0.7 0 0 3.4 0.3 5.5 2.1 0 0-1 0.2-1.6 0.8 0 0 3 0.6 4.7 2.1 0 0-1.1 0-1.8 0.3 0 0 3.1 1 4.6 2.7 0 0-0.8-0.3-1.4 0 0 0 2.7 1.4 4.1 3.2 0 0-0.7-0.1-1.4 0.1 0 0 2 0.6 3.7 2.8 0 0-0.9-0.3-1.6-0.1 0 0 2.7 1.4 3.7 3.6 0 0-0.6-0.4-1.6-0.3 0 0 1.8 0.9 3.1 3.2 0 0-0.9-0.5-1.5-0.4q-0.1 0-0.1 0.1c0 0 1.9 0.7 2.6 2.8 0.9 2.8 2.1 4.3 2.6 4.9z"/>
		<path id="&lt;Path&gt;" class="s0" stroke="url(#gradient1)" d="m67.8 184.2c0.4-0.6 2-2.9 2.6-4.9 0.7-2.2 2.6-2.8 2.6-2.8q0-0.1-0.1-0.1c-0.6-0.1-1.5 0.4-1.5 0.4 1.3-2.3 3.2-3.2 3.2-3.2-1-0.1-1.7 0.3-1.7 0.3 1-2.2 3.7-3.6 3.7-3.6-0.7-0.2-1.6 0.1-1.6 0.1 1.7-2.2 3.7-2.8 3.7-2.8-0.6-0.2-1.4-0.1-1.4-0.1 1.4-1.8 4.2-3.2 4.2-3.2-0.7-0.3-1.5 0-1.5 0 1.5-1.7 4.6-2.7 4.6-2.7-0.7-0.3-1.8-0.3-1.8-0.3 1.7-1.5 4.7-2.1 4.7-2.1-0.6-0.6-1.6-0.8-1.6-0.8 2.1-1.8 5.5-2.1 5.5-2.1-0.5-0.4-1.5-0.5-1.5-0.5 0 0 7.5-1.9 10.9-4.6-2.6 3.4-4.4 11.1-4.4 11.1 0 0-0.1-1-0.7-1.7 0 0-0.3 3.4-2.1 5.5 0 0-0.2-1-0.8-1.6 0 0-0.6 3-2.1 4.7 0 0 0-1.1-0.3-1.8 0 0-1.1 3.1-2.7 4.6 0 0 0.3-0.8 0-1.5 0 0-1.4 2.7-3.2 4.2 0 0 0.1-0.8-0.1-1.5 0 0-0.6 2.1-2.8 3.8 0 0 0.3-0.9 0.1-1.6 0 0-1.4 2.7-3.6 3.7 0 0 0.4-0.7 0.3-1.7 0 0-0.9 1.8-3.2 3.2 0 0 0.5-0.9 0.4-1.5q0-0.1-0.1-0.1c0 0-0.7 1.8-2.8 2.6-2.8 0.9-4.3 2.1-4.9 2.6z"/>
		<path id="&lt;Path&gt;" class="s0" stroke="url(#gradient1)" d="m6.9 151.2c1.4-0.1 6.9-1.2 10.7-3.1 4.1-2.2 7.7-0.5 7.7-0.5q0 0 0-0.1c-0.7-1.1-2.8-1.6-2.8-1.6 5.3-1.4 9-0.1 9-0.1-1.2-1.6-2.6-2-2.6-2 4.5-1.7 10.3 0.1 10.3 0.1-0.7-1.2-2.4-2-2.4-2 5.5-0.8 9.3 1.3 9.3 1.3-0.6-1.3-1.8-2.2-1.8-2.2 4.5-0.5 10.3 1.4 10.3 1.4-0.5-1.4-2.1-2.1-2.1-2.1 4.6-0.3 10.6 2.7 10.6 2.7-0.7-1.4-2.3-3-2.3-3 4.6 0.2 9.7 3.7 9.7 3.7 0-1.8-1.1-3.3-1.1-3.3 5.6 0.3 10.9 4.8 10.9 4.8-0.2-1.4-1.5-2.9-1.5-2.9 0 0 13.4 8 22 8.9-8.6 1.2-22 9.6-22 9.6 0 0 1.2-1.6 1.5-3.5 0 0-5.3 4.4-10.9 4.8 0 0 1.1-1.6 1.1-3.3 0 0-5.1 3.4-9.7 3.6 0 0 1.6-1.5 2.3-2.9 0 0-6 2.9-10.6 2.7 0 0 1.6-0.7 2.1-2.1 0 0-5.8 1.9-10.3 1.4 0 0 1.1-0.9 1.8-2.2 0 0-3.8 2.1-9.3 1.3 0 0 1.7-0.9 2.4-2.1 0 0-5.8 1.9-10.3 0.2 0 0 1.4-0.4 2.6-2.1 0 0-3.7 1.4-9 0 0 0 2.1-0.5 2.8-1.6q0-0.1 0-0.1c0 0-3.6 1.6-7.7-0.5-5.3-2.6-9.2-3-10.7-3.2z"/>
		<path id="&lt;Path&gt;" class="s0" stroke="url(#gradient1)" d="m0.6 51.1c1.3 1.7 6.1 8.7 8 14.8 2.1 6.7 7.8 8.7 7.8 8.7q-0.1 0.1-0.2 0.1c-1.9 0.5-4.7-1.3-4.7-1.3 4.2 7.2 9.6 9.8 9.6 9.8-3 0.4-5-0.7-5-0.7 3 6.6 11.2 10.9 11.2 10.9-2 0.5-4.7-0.4-4.7-0.4 5 6.7 11.3 8.5 11.3 8.5-2.1 0.7-4.3 0.4-4.3 0.4 4.3 5.4 12.5 9.6 12.5 9.6-2 0.9-4.5 0-4.5 0 4.6 5.1 14.2 8.3 14.2 8.3-2.3 0.8-5.7 0.7-5.7 0.7 5.3 4.8 14.4 6.5 14.4 6.5-2 1.9-4.8 2.4-4.8 2.4 6.4 5.6 16.7 6.5 16.7 6.5-1.6 1.3-4.6 1.4-4.6 1.4 0 0 22.8 5.8 33 13.9-7.9-10.3-13.3-33.5-13.3-33.5 0 0-0.4 2.9-2.1 5.2 0 0-0.9-10.3-6.5-16.8 0 0-0.5 2.9-2.4 4.9 0 0-1.7-9.2-6.4-14.4 0 0 0 3.3-0.8 5.6 0 0-3.2-9.5-8.3-14.1 0 0 0.9 2.5 0 4.5 0 0-4.1-8.2-9.6-12.5 0 0 0.3 2.2-0.4 4.3 0 0-1.8-6.3-8.5-11.3 0 0 0.9 2.7 0.4 4.7 0 0-4.3-8.2-10.9-11.2 0 0 1.1 2 0.7 5 0 0-2.6-5.5-9.7-9.6 0 0 1.7 2.8 1.2 4.7q0 0.1-0.1 0.2c0 0-2.2-5.6-8.7-7.8-8.4-2.8-13-6.6-14.8-8z"/>
	</g>
</svg>
